<?xml version="1.0" encoding="UTF-8"?>
<svg width="181px" height="18px" viewBox="0 0 181 18" version="1.1" xmlns="http://www.w3.org/2000/svg" xmlns:xlink="http://www.w3.org/1999/xlink">
    <title>ucdavissloth-logo</title>
    <g id="Symbols" stroke="none" stroke-width="1" fill="none" fill-rule="evenodd" fill-opacity="0.99">
        <g id="header" transform="translate(-147.000000, -21.000000)" fill="#1F1F1F">
            <g transform="translate(0.000000, 18.000000)" id="ucdavissloth-logo">
                <g transform="translate(147.000000, 3.728000)">
                    <g id="SLOTH" transform="translate(110.104000, 0.000000)" fill-rule="nonzero">
                        <path d="M0,14.016 C1.224,15.504 3.216,16.56 5.856,16.56 C10.176,16.56 11.544,14.088 11.544,12.024 C11.544,8.784 8.712,7.968 6.12,7.224 C3.936,6.648 1.944,6.096 1.944,4.2 C1.944,2.472 3.552,1.248 5.688,1.248 C7.488,1.248 9.12,1.872 10.272,3.264 L11.184,2.256 C9.936,0.84 8.16,0 5.76,0 C2.856,0 0.504,1.656 0.504,4.272 C0.504,7.224 3.192,7.944 5.712,8.64 C7.968,9.24 10.104,9.864 10.104,12.12 C10.104,13.488 9.168,15.312 5.88,15.312 C3.6,15.312 1.92,14.184 0.888,12.984 L0,14.016 Z" id="Path"></path>
                        <polygon id="Path" points="23.952 16.272 23.952 15.024 16.2 15.024 16.2 0.264 14.832 0.264 14.832 16.272"></polygon>
                        <path d="M25.44,8.28 C25.44,12.96 28.512,16.56 33.216,16.56 C37.896,16.56 40.992,12.96 40.992,8.28 C40.992,3.6 37.896,0 33.216,0 C28.512,0 25.44,3.6 25.44,8.28 Z M39.552,8.28 C39.552,12.312 37.056,15.312 33.216,15.312 C29.328,15.312 26.88,12.312 26.88,8.28 C26.88,4.2 29.328,1.248 33.216,1.248 C37.056,1.248 39.552,4.2 39.552,8.28 Z" id="Shape"></path>
                        <polygon id="Path" points="49.152 16.272 49.152 1.512 54.384 1.512 54.384 0.264 42.528 0.264 42.528 1.512 47.76 1.512 47.76 16.272"></polygon>
                        <polygon id="Path" points="70.128 16.272 70.128 0.264 68.736 0.264 68.736 7.416 58.584 7.416 58.584 0.264 57.216 0.264 57.216 16.272 58.584 16.272 58.584 8.664 68.736 8.664 68.736 16.272"></polygon>
                    </g>
                    <g id="davis" transform="translate(0.000000, 0.272000)">
                        <path d="M91.1869171,15.4846154 L92.8505246,11.1568332 L93.1381977,11.4033257 C94.1579071,12.2223559 95.5417984,12.9190439 96.8473447,12.9467668 C98.0151751,12.9732843 98.5850127,12.6671273 98.4301589,11.6938132 C98.3157017,10.9675944 97.4820617,10.8392254 96.9605777,10.7385793 L95.8190663,10.5137829 C93.5972506,10.1045692 91.7285995,8.75518822 91.7285995,6.19745142 C91.7285995,2.33071266 95.1133491,0.162301493 98.5176849,0.162301493 C100.305543,0.162301493 101.947728,0.610688906 103.482188,1.59485106 L102.040762,5.42964824 C101.248743,4.86795864 100.052146,4.07785662 98.5360471,4.02421888 C98.0378217,4.00553607 96.8956982,4.26408204 97.2611043,5.40373338 C97.4190185,5.88948641 98.1259598,6.09379197 98.5611419,6.19745142 L99.8513865,6.50421109 C102.257435,7.05625796 104,8.40624156 104,11.1676812 C104,15.0549108 100.59444,16.9780348 97.2127507,16.9780348 C95.2382114,16.9780348 92.9527404,16.4247826 91.1869171,15.4846154" id="Fill-3"></path>
                        <polygon id="Fill-4" points="84.1670811 16.7333503 89.9627762 16.7333503 89.9627762 0.428079516 84.1670811 0.428079516"></polygon>
                        <polyline id="Fill-5" points="77.6313927 0.427476845 83.567252 0.427476845 77.50347 16.7333503 72.6870876 16.7333503 66.6428919 0.427476845 72.5585528 0.427476845 75.0961969 10.2672904 77.6313927 0.427476845"></polyline>
                        <path d="M61.2211718,5.13433933 L61.2211718,5.13433933 C61.3264479,5.82801394 62.3645194,10.8187346 62.3645194,10.8187346 L60.0857811,10.8187346 L61.2211718,5.13433933 Z M52.5824094,16.7333503 L58.6045706,16.7333503 L59.0630114,14.6854733 L63.359746,14.6854733 L63.9301956,16.7333503 L69.9560292,16.7333503 L64.3158,0.428079516 L57.9986208,0.428079516 L52.5824094,16.7333503 L52.5824094,16.7333503 Z" id="Fill-6"></path>
                        <path d="M37.6919594,0.427476845 L43.6284307,0.427476845 C48.9271246,0.427476845 52.9741345,2.8224924 52.9741345,8.81605802 C52.9741345,13.6446601 49.6762989,16.7333503 45.0429255,16.7333503 L37.6919594,16.7243102 L37.6919594,0.427476845 Z M43.526827,12.0518 L43.9154918,12.0518 C45.8257636,12.0518 47.2433188,10.9229967 47.2433188,8.79496452 C47.2433188,6.50421109 45.9879623,5.22654803 43.8891727,5.22654803 L43.526827,5.22654803 L43.526827,12.0518 L43.526827,12.0518 Z" id="Fill-7"></path>
                        <path d="M34.2258044,0.939144739 L34.535512,3.61560777 C34.6077364,4.2502206 34.9768148,5.77377353 34.5202103,5.57007065 C34.2362096,5.44471503 34.0017866,4.75405377 33.7691998,4.13993176 C33.6510702,3.82835073 33.0867413,2.35542218 32.9392323,2.24694136 C32.2249461,1.7220147 30.4456573,1.12898618 29.2417147,1.12356214 C25.5913265,1.11030337 23.1767085,3.76205689 23.1767085,8.4683167 C23.1767085,11.8432757 24.8170574,15.8920212 28.9919899,15.8920212 C30.4878901,15.8920212 33.3523799,15.428567 34.1327697,13.3330791 C34.4853223,12.3844745 34.8072713,11.5413374 35.0404702,11.7980754 C35.2142982,11.9843008 34.9884442,12.7436666 34.8843922,13.1528804 C34.3922876,15.0952898 34.3653565,15.6840996 34.2105026,15.7594335 C32.3247136,16.6929713 29.9051991,16.999731 27.7886594,16.999731 C21.0558844,16.999731 18.7318529,13.1323895 18.7318529,9.26625344 C18.7318529,2.55671438 22.9178027,-0.269211124 29.4051375,0.0200710778 C31.0467104,0.0803382031 32.6888955,0.367812391 34.2258044,0.939144739" id="Fill-9"></path>
                        <path d="M14.3494284,1.23686434 L13.2709603,0.866221517 C12.9104508,0.54560041 13.3511415,0.455802394 13.3511415,0.455802394 C13.3511415,0.455802394 14.9088608,0.740865896 18.7899996,0.416026091 C18.7899996,0.416026091 19.1266383,0.4829226 18.8946636,0.751713979 L17.620333,1.28929674 C16.7909775,1.64547545 16.7909775,1.44116989 16.7909775,2.3361367 L16.7836326,10.6457679 C16.7836326,17.1455774 10.071056,16.999731 8.76306141,16.999731 C8.13936162,16.999731 1.98193284,16.999731 1.98193284,11.7824059 L1.98193284,2.98521364 C1.98193284,1.45201797 2.14902808,1.49179428 1.63121647,1.31280092 L0.0741092365,0.737249869 C0.0741092365,0.737249869 -0.1903052,0.369017733 0.279764909,0.392521912 C1.55287145,0.455802394 3.39520352,0.723991101 7.72927441,0.416026091 C7.72927441,0.416026091 8.10692188,0.50702945 7.85842128,0.775218158 L6.56266813,1.1350129 C5.57662262,1.57014154 5.70699363,1.23686434 5.6806746,2.23428526 L5.71189019,10.9073273 C5.71189019,13.0341541 6.82341014,15.6678275 10.3189445,15.6678275 C15.0771802,15.6678275 15.1224734,11.6148633 15.1224734,10.7132671 L15.1304303,2.12158574 C15.1812322,1.31280092 15.0771802,1.54302133 14.3494284,1.23686434" id="Fill-11"></path>
                    </g>
                </g>
            </g>
        </g>
    </g>
</svg>